<svg id="Capa_1" enable-background="new 0 0 512 512" height="512" viewBox="0 0 512 512" width="512" xmlns="http://www.w3.org/2000/svg"><g><path d="m471.745 260.553 40.255-67.498-77.92-10.236-9.615-56.47-100.84 81.308 30.575-132.143-55.011 15.97-43.189-65.658-10 259.715 10 66.877 131.278 40.351-20.193-57.117 143.02-32.558z" fill="#e62e6b"/><path d="m256 25.826-43.189 65.658-55.011-15.97 30.574 132.143-100.839-81.308-9.615 56.47-77.92 10.236 40.255 67.498-38.36 42.541 143.02 32.558-20.193 57.117 131.278-40.351z" fill="#f66"/><path d="m271 285.541h-15l-10 100.316 10 100.317h15z" fill="#b32453"/><path d="m241 285.541h15v200.633h-15z" fill="#e62e6b"/></g></svg>