<svg id="Layer_1" data-name="Layer 1" xmlns="http://www.w3.org/2000/svg" viewBox="0 0 800 213.03"><defs><style>.cls-1{fill:#fff;}.cls-2{fill:#a8ce3b;opacity:0.38;isolation:isolate;}</style></defs><title>logo</title><g id="Groupe_13" data-name="Groupe 13"><g id="Groupe_12" data-name="Groupe 12"><path id="Fill-1" class="cls-1" d="M270.43,149.71a13.55,13.55,0,0,0,4.73,5.07,22.4,22.4,0,0,0,6.42,3,27.85,27.85,0,0,0,7.43,1,33.67,33.67,0,0,0,5.75-.67,16.76,16.76,0,0,0,5.74-2,14.38,14.38,0,0,0,4.05-3.72,10.72,10.72,0,0,0,1.69-6.08c0-4.05-2.7-7.09-7.77-9.12a164,164,0,0,0-22.29-6.08c-3.72-1-7.77-2-11.15-3a37.59,37.59,0,0,1-9.8-4.73,23.68,23.68,0,0,1-6.76-7.43,21.38,21.38,0,0,1-2.7-10.81,30.2,30.2,0,0,1,3.72-15.54A28.16,28.16,0,0,1,259,80.12a43.06,43.06,0,0,1,13.51-5.07,86.25,86.25,0,0,1,30.4,0A38.32,38.32,0,0,1,316,80.12a28.16,28.16,0,0,1,9.46,9.46,33.49,33.49,0,0,1,4.73,14.87H304.88A11.79,11.79,0,0,0,299.14,94,27,27,0,0,0,287,91.26a24.09,24.09,0,0,0-4.72.34A19.39,19.39,0,0,0,277.53,93a15.24,15.24,0,0,0-3.72,2.71,6.65,6.65,0,0,0-1.69,5.07,7.21,7.21,0,0,0,2.7,5.74,25.34,25.34,0,0,0,6.76,3.72c2.7,1,6.08,1.69,9.46,2.7,3.72.68,7.43,1.69,11.15,2.36,3.72,1,7.77,2,11.15,3a38.42,38.42,0,0,1,9.79,5.07,25,25,0,0,1,6.76,7.77,23.09,23.09,0,0,1,2.7,11.49,33.86,33.86,0,0,1-3.71,16.22,30.13,30.13,0,0,1-10.13,10.47,37.69,37.69,0,0,1-14.2,5.41,80.34,80.34,0,0,1-32.76,0,38.19,38.19,0,0,1-14.2-5.74,33.56,33.56,0,0,1-10.13-10.48,33.92,33.92,0,0,1-4.39-16.22h25.34a14.56,14.56,0,0,0,2,7.43" transform="translate(-11.27 -2.57)"/><path id="Fill-4" class="cls-1" d="M394.07,76.39V94.3H374.82v48.28a12.89,12.89,0,0,0,2.36,9.12,13.41,13.41,0,0,0,9.12,2.37,19.52,19.52,0,0,0,4.39-.34,16.91,16.91,0,0,0,4.06-.68v20.61a51.43,51.43,0,0,1-7.44.67c-2.69,0-5.4.34-8.1.34a67.86,67.86,0,0,1-11.82-1,30.67,30.67,0,0,1-9.8-3.38,19.5,19.5,0,0,1-6.76-7.1,24.58,24.58,0,0,1-2.36-11.82V93.93H332.26V76h16.22V47h26.68V76.35h18.92" transform="translate(-11.27 -2.57)"/><path id="Fill-5" class="cls-1" d="M420.42,136.53a33,33,0,0,0,3.72,10.13,17.83,17.83,0,0,0,7.1,7.1,24.35,24.35,0,0,0,22.29,0,21.26,21.26,0,0,0,7.44-7.1,33,33,0,0,0,3.71-10.13,65.64,65.64,0,0,0,0-23A33,33,0,0,0,461,103.43a18.82,18.82,0,0,0-7.44-7.1,24.35,24.35,0,0,0-22.29,0,17.9,17.9,0,0,0-7.1,7.1,30.1,30.1,0,0,0-3.72,10.13,66.05,66.05,0,0,0-1,11.49A64,64,0,0,0,420.42,136.53Zm-24-32.76a44.07,44.07,0,0,1,10.13-16.22,50.29,50.29,0,0,1,15.54-10.48,56.2,56.2,0,0,1,20.61-3.72,57.54,57.54,0,0,1,20.6,3.72,46.57,46.57,0,0,1,15.89,10.48,44.07,44.07,0,0,1,10.13,16.22,62.84,62.84,0,0,1,0,42.56,44.07,44.07,0,0,1-10.13,16.22,42.88,42.88,0,0,1-15.89,10.14,59,59,0,0,1-41.21,0,41.45,41.45,0,0,1-15.54-10.14,44.07,44.07,0,0,1-10.13-16.22,59.85,59.85,0,0,1-3.72-21.28,61.1,61.1,0,0,1,3.72-21.28Z" transform="translate(-11.27 -2.57)"/><path id="Fill-6" class="cls-1" d="M523.81,76.39V94.64h.34a43.29,43.29,0,0,1,5.06-8.45,28.88,28.88,0,0,1,7.44-6.76A43.41,43.41,0,0,1,545.43,75a31.51,31.51,0,0,1,9.79-1.35,19,19,0,0,1,5.74,1v25c-1.35-.34-2.7-.34-4.39-.68a25.24,25.24,0,0,0-5.06-.34A26.16,26.16,0,0,0,539.34,101a20,20,0,0,0-8.11,6.76,29.06,29.06,0,0,0-4.39,9.8,46.5,46.5,0,0,0-1.35,12.16v43.89h-27V76.35h25.34" transform="translate(-11.27 -2.57)"/><path id="Fill-7" class="cls-1" d="M759.28,202.72A38.06,38.06,0,0,1,738,207.79a64.47,64.47,0,0,1-8.1-.33c-2.7-.34-5.41-.34-8.11-.68V184.83c2.37.34,5.07.34,7.77.68a61.14,61.14,0,0,0,7.77.34,10.41,10.41,0,0,0,7.77-4.06,13.12,13.12,0,0,0,2.36-7.77,18.82,18.82,0,0,0-1-6.08L712.63,76.39h28l22,66.89H763L783.9,76.39h27.37L771,186.19a31.44,31.44,0,0,1-11.82,16.55" transform="translate(-11.27 -2.57)"/><path id="Fill-8" class="cls-1" d="M675.49,173.69h26.69V38.89H675.49Z" transform="translate(-11.27 -2.57)"/><path id="Fill-13" class="cls-1" d="M626.43,96.3a17.22,17.22,0,0,0-13.9-5,23.59,23.59,0,0,0-10.09,2.52,27.22,27.22,0,0,0-6.31,5c-1.27,2.52-2.52,3.78-3.78,6.3a13.73,13.73,0,0,0-1.27,6.31H634A28.73,28.73,0,0,0,626.43,96.3Zm-29,51.72a25,25,0,0,0,17.66,6.31,25.42,25.42,0,0,0,13.9-3.78,17,17,0,0,0,7.57-8.83h24A48,48,0,0,1,642.85,167a50.82,50.82,0,0,1-27.74,7.57,52.32,52.32,0,0,1-20.19-3.78,45.3,45.3,0,0,1-15.13-10.1,71.29,71.29,0,0,1-10.1-16.4,55.78,55.78,0,0,1,0-40.37,71.71,71.71,0,0,1,10.1-16.4,43.54,43.54,0,0,1,15.13-11.35,52.32,52.32,0,0,1,20.19-3.78,38.65,38.65,0,0,1,21.44,5A50.56,50.56,0,0,1,651.68,90a65.76,65.76,0,0,1,8.83,18.92,59.54,59.54,0,0,1,1.26,21.44H592.39A17.09,17.09,0,0,0,597.44,148Z" transform="translate(-11.27 -2.57)"/></g><path id="Tracé_29" data-name="Tracé 29" class="cls-1" d="M197.37,203.9l-16.31-141A15.8,15.8,0,0,0,165.4,49H152.53c.07-1,.14-1.91.14-2.93,0-24-21.65-43.46-48.28-43.46S56.11,22,56.11,46c0,1,0,2,.07,2.93H43.3a15.8,15.8,0,0,0-15.65,14l-16.31,141a10.6,10.6,0,0,0,9.21,11.63c.44,0,.81.07,1.25.07H186.91a10.62,10.62,0,0,0,10.53-10.53C197.44,204.63,197.37,204.27,197.37,203.9ZM104.32,16.55c18.94,0,34.31,13.17,34.31,29.48a20.75,20.75,0,0,1-.22,2.93H70.23c-.08-1-.15-2-.15-2.93C70.08,29.72,85.44,16.55,104.32,16.55Zm-53,75.2a11.82,11.82,0,1,1,11.78,11.78A11.77,11.77,0,0,1,51.28,91.75ZM102.93,167a48.7,48.7,0,0,1-47.19-47.19v-1.46A7.21,7.21,0,0,1,63,111.07a7.08,7.08,0,0,1,7.17,7.09v.15c-.07.29-.07.73-.14,1v1.46a34.49,34.49,0,0,0,68.69,0,14.63,14.63,0,0,0-.07-1.75v-1.1A7.2,7.2,0,0,1,153,117.5v1.1c0,.29.07.73.07,1.17A48.71,48.71,0,0,1,102.93,167Zm54.13-64.45a8,8,0,0,1-2.63-.44,14.26,14.26,0,0,0-1.54-.81,17.89,17.89,0,0,0-15.14,0,7.19,7.19,0,0,0-1.54.81,7.5,7.5,0,0,1-9.65-4.39A6.26,6.26,0,0,1,126,95a7.49,7.49,0,0,1,2.64-5.7c.88-.51,1.75-1,2.7-1.47A33,33,0,0,1,145.87,85,32.62,32.62,0,0,1,159,87.87,23.24,23.24,0,0,1,162,89.41a7.47,7.47,0,0,1-4.9,13.1Z" transform="translate(-11.27 -2.57)"/><path id="Tracé_31" data-name="Tracé 31" class="cls-1" d="M560.39,212.25a1,1,0,0,1,0,.25v-1A4.57,4.57,0,0,1,560.39,212.25Z" transform="translate(-11.27 -2.57)"/><path id="Tracé_32" data-name="Tracé 32" class="cls-2" d="M560.26,195.24a10.23,10.23,0,0,1,1.54.8A7.51,7.51,0,0,1,560.26,195.24Z" transform="translate(-11.27 -2.57)"/><path id="Tracé_33" data-name="Tracé 33" class="cls-2" d="M569.36,183.39a24.91,24.91,0,0,0-2.92-1.58" transform="translate(-11.27 -2.57)"/><path id="Tracé_34" data-name="Tracé 34" class="cls-2" d="M538.7,181.87a24,24,0,0,0-2.69,1.46" transform="translate(-11.27 -2.57)"/><path id="Tracé_35" data-name="Tracé 35" class="cls-2" d="M545.05,195.24a7.43,7.43,0,0,1-1.53.8A10.13,10.13,0,0,1,545.05,195.24Z" transform="translate(-11.27 -2.57)"/></g></svg>